<svg xmlns="http://www.w3.org/2000/svg" viewBox="0 0 640 480">
  <path fill="#012169" d="M0 0h640v480H0z"/>
  <path fill="#FFF" d="m75 0 244 181L562 0h78v62L400 240l240 178v62h-78L320 300 78 480H0v-62l240-178L0 62V0h75z"/>
  <path fill="#C8102E" d="m424 281 216 159v40L369 307l55-26zM640 0v3L391 191l54 26L640 40V0zM0 439l214-159-55 26L0 480v-41zM0 40l243 181-54 26L0 7V40z"/>
  <path fill="#FFF" d="M240 0v480h160V0H240zM0 160v160h640V160H0z"/>
  <path fill="#C8102E" d="M280 0v480h80V0h-80zM0 200v80h640v-80H0z"/>
</svg>
